#!OML:ASF F:\VICON\USERDATA\INSTALL\rory3\rory3.ASF
:FULLY-SPECIFIED
:DEGREES
321
root -0.166504 17.9519 -0.429751 3.0633 -9.87886 2.41522
lowerback -0.925164 -1.89435 -4.83783
upperback -1.43586 -2.5026 2.55041
thorax -0.639963 -1.20251 5.33836
lowerneck -31.9798 -0.708335 -8.34705
upperneck 6.75447 1.38617 6.1353
head 6.86971 1.03635 3.60109
rclavicle -8.35393e-014 1.19271e-014
rhumerus -32.1887 0.680057 -80.8748
rradius 30.3524
rwrist 19.6913
rhand -18.0959 8.32895
rfingers 7.12502
rthumb 8.1778 -21.4928
lclavicle -8.35393e-014 1.19271e-014
lhumerus 48.829 1.4083 48.7623
lradius 97.3411
lwrist -11.6197
lhand -41.3486 21.1348
lfingers 7.12502
lthumb -14.2675 50.6247
rfemur -8.00067 8.55466 14.0635
rtibia 26.1953
rfoot -18.0443 -3.15559
rtoes 4.50069
lfemur 2.29895 -2.60911 -22.9863
ltibia 9.60914
lfoot -10.1364 6.51602
ltoes -14.1286
322
root -0.16417 17.9533 -0.431453 3.06831 -9.85692 2.38574
lowerback -1.02106 -1.90612 -4.74174
upperback -1.37775 -2.51426 2.52369
thorax -0.529715 -1.21382 5.25071
lowerneck -31.8504 -0.727821 -8.29524
upperneck 7.1779 1.34853 5.97553
head 6.99988 0.996665 3.53768
rclavicle 7.72154e-015 -3.65764e-014
rhumerus -32.1603 0.730751 -80.939
rradius 30.4249
rwrist 19.5621
rhand -18.1536 8.50679
rfingers 7.12502
rthumb 8.1221 -21.3171
lclavicle 7.72154e-015 -3.65764e-014
lhumerus 48.3209 0.875537 48.9238
lradius 97.4489
lwrist -9.94531
lhand -40.1706 20.9117
lfingers 7.12502
lthumb -13.1322 50.4782
rfemur -7.97626 8.52726 14.0892
rtibia 26.1452
rfoot -17.995 -3.17146
rtoes 4.27708
lfemur 2.28502 -2.62934 -22.9461
ltibia 9.62159
lfoot -10.1905 6.47056
ltoes -13.6938
323
root -0.161723 17.9542 -0.433319 3.05366 -9.80263 2.37487
lowerback -1.05388 -1.91839 -4.67281
upperback -1.39571 -2.52975 2.4948
thorax -0.531956 -1.22168 5.18034
lowerneck -31.4587 -0.726317 -8.35649
upperneck 7.5551 1.33604 5.99273
head 7.07556 0.982092 3.55263
rclavicle 4.71492e-015 -3.02153e-014
rhumerus -32.315 0.836176 -81.0142
rradius 30.5606
rwrist 19.356
rhand -18.1518 8.5859
rfingers 7.12502
rthumb 8.12382 -21.2379
lclavicle 4.71492e-015 -3.02153e-014
lhumerus 47.6678 0.234623 49.1223
lradius 97.2694
lwrist -9.52109
lhand -39.5106 21.0963
lfingers 7.12502
lthumb -12.496 50.7027
rfemur -7.9265 8.42062 14.0989
rtibia 26.099
rfoot -17.9256 -3.20894
rtoes 4.24756
lfemur 2.27447 -2.68141 -22.938
ltibia 9.65944
lfoot -10.1543 6.48236
ltoes -13.8426
324
root -0.159429 17.9557 -0.438237 3.04653 -9.79898 2.28198
lowerback -1.09091 -1.91159 -4.52521
upperback -1.36833 -2.51965 2.49831
thorax -0.490011 -1.21952 5.09838
lowerneck -31.211 -0.738341 -8.39535
upperneck 7.91682 1.30969 5.99576
head 7.17796 0.961532 3.55653
rclavicle -1.84497e-014 -1.11319e-014
rhumerus -32.3282 0.958525 -81.1013
rradius 30.6636
rwrist 19.1433
rhand -18.114 8.43794
rfingers 7.12502
rthumb 8.16031 -21.3845
lclavicle -1.84497e-014 -1.11319e-014
lhumerus 46.9475 -0.40601 49.3147
lradius 97.0433
lwrist -9.30823
lhand -39.352 21.171
lfingers 7.12502
lthumb -12.3431 50.7866
rfemur -7.90459 8.38264 14.1951
rtibia 26.0601
rfoot -17.8574 -3.24589
rtoes 3.98143
lfemur 2.26427 -2.67848 -22.8492
ltibia 9.70011
lfoot -10.132 6.51484
ltoes -14.0573
325
root -0.156963 17.9565 -0.442902 3.02222 -9.79175 2.26369
lowerback -1.09191 -1.91739 -4.44061
upperback -1.33159 -2.52757 2.48111
thorax -0.454792 -1.22592 5.0314
lowerneck -31.5543 -0.740735 -8.27367
upperneck 8.87073 1.29752 5.83948
head 7.55432 0.933868 3.50388
rclavicle 3.2433e-014 -1.51076e-014
rhumerus -32.2819 0.938143 -81.1517
rradius 30.7029
rwrist 19.1806
rhand -18.0706 8.30117
rfingers 7.12502
rthumb 8.20215 -21.5196
lclavicle 3.2433e-014 -1.51076e-014
lhumerus 46.1205 -1.07109 49.4916
lradius 96.8829
lwrist -8.79088
lhand -39.7051 21.0617
lfingers 7.12502
lthumb -12.6835 50.6565
rfemur -7.88275 8.35655 14.209
rtibia 26.0256
rfoot -17.8276 -3.21727
rtoes 3.81565
lfemur 2.21335 -2.68295 -22.831
ltibia 9.78828
lfoot -10.199 6.50126
ltoes -13.6659
326
root -0.154998 17.9567 -0.448475 2.9948 -9.74729 2.23155
lowerback -1.06539 -1.94542 -4.37554
upperback -1.32676 -2.56629 2.47492
thorax -0.46301 -1.24567 4.98825
lowerneck -31.6267 -0.717541 -8.1793
upperneck 9.58439 1.32055 5.64325
head 7.80994 0.917159 3.43822
rclavicle 2.78423e-014 3.97569e-015
rhumerus -32.2694 0.948496 -81.2005
rradius 30.6832
rwrist 19.2235
rhand -18.1002 8.38613
rfingers 7.12502
rthumb 8.17366 -21.4358
lclavicle 2.78423e-014 3.97569e-015
lhumerus 45.2709 -1.73146 49.752
lradius 96.6871
lwrist -8.20325
lhand -39.9333 20.4111
lfingers 7.12502
lthumb -12.9035 49.9922
rfemur -7.84319 8.37268 14.25
rtibia 25.993
rfoot -17.8511 -3.24114
rtoes 3.81913
lfemur 2.13517 -2.72414 -22.7836
ltibia 9.90429
lfoot -10.2647 6.49089
ltoes -13.3597
327
root -0.153075 17.9574 -0.456134 2.96109 -9.73073 2.17179
lowerback -1.09007 -1.97218 -4.3174
upperback -1.26013 -2.60106 2.48915
thorax -0.378182 -1.26723 4.96697
lowerneck -30.9873 -0.651831 -8.22709
upperneck 9.43989 1.3828 5.61525
head 7.66425 0.937988 3.43296
rclavicle -3.7707e-014 1.51076e-014
rhumerus -32.1489 0.995598 -81.2508
rradius 30.618
rwrist 19.2255
rhand -18.1143 8.52235
rfingers 7.12502
rthumb 8.15999 -21.3001
lclavicle -3.7707e-014 1.51076e-014
lhumerus 44.4264 -2.26696 50.2069
lradius 96.7703
lwrist -7.86176
lhand -39.2614 20.1674
lfingers 7.12502
lthumb -12.2557 49.7883
rfemur -7.81773 8.42817 14.3262
rtibia 25.9822
rfoot -17.8312 -3.29182
rtoes 3.89315
lfemur 2.11178 -2.73544 -22.7156
ltibia 9.95699
lfoot -10.2436 6.48089
ltoes -13.4726
328
root -0.151199 17.9578 -0.46336 2.94226 -9.72199 2.14675
lowerback -1.13492 -1.99282 -4.26182
upperback -1.15447 -2.62684 2.47764
thorax -0.244012 -1.28637 4.91874
lowerneck -30.4373 -0.580464 -8.07377
upperneck 9.18994 1.40437 5.45546
head 7.5001 0.935497 3.34378
rclavicle 3.76448e-015 8.74653e-015
rhumerus -31.9943 1.04102 -81.3112
rradius 30.6018
rwrist 19.2992
rhand -18.206 8.71419
rfingers 7.12502
rthumb 8.0715 -21.1117
lclavicle 3.76448e-015 8.74653e-015
lhumerus 43.6508 -2.76383 50.6369
lradius 96.8525
lwrist -7.6534
lhand -38.4014 20.311
lfingers 7.12502
lthumb -11.4264 49.9797
rfemur -7.81081 8.44867 14.354
rtibia 25.9703
rfoot -17.8155 -3.31689
rtoes 3.96031
lfemur 2.07639 -2.74154 -22.6864
ltibia 10.0273
lfoot -10.2252 6.48013
ltoes -13.4652
329
root -0.149246 17.9576 -0.468085 2.87734 -9.73944 2.25557
lowerback -1.11632 -2.00537 -4.32108
upperback -1.05525 -2.64335 2.43009
thorax -0.149921 -1.29902 4.9008
lowerneck -30.3594 -0.538137 -7.8851
upperneck 9.38061 1.41733 5.23153
head 7.55559 0.921153 3.24053
rclavicle 8.27441e-015 -1.19271e-014
rhumerus -31.8578 1.13157 -81.3802
rradius 30.6671
rwrist 19.3237
rhand -18.1604 8.64486
rfingers 7.12502
rthumb 8.11549 -21.1793
lclavicle 8.27441e-015 -1.19271e-014
lhumerus 42.9719 -3.30922 50.8081
lradius 96.5154
lwrist -7.19715
lhand -38.3257 20.172
lfingers 7.12502
lthumb -11.3534 49.8447
rfemur -7.77451 8.45881 14.2295
rtibia 25.9587
rfoot -17.8066 -3.3118
rtoes 3.88347
lfemur 2.06504 -2.72132 -22.8107
ltibia 10.1222
lfoot -10.2494 6.46549
ltoes -13.4662
330
root -0.146373 17.9581 -0.472938 2.8094 -9.74686 2.23753
lowerback -1.13716 -2.00532 -4.23335
upperback -0.903138 -2.64238 2.40471
thorax 0.0133324 -1.30642 4.82029
lowerneck -30.5084 -0.537021 -7.98987
upperneck 9.92805 1.4478 5.33365
head 7.76158 0.93603 3.30915
rclavicle -1.54555e-014 8.74653e-015
rhumerus -31.6357 1.18754 -81.4503
rradius 30.7075
rwrist 19.2616
rhand -17.9784 8.42182
rfingers 7.12502
rthumb 8.29115 -21.3955
lclavicle -1.54555e-014 8.74653e-015
lhumerus 42.3294 -3.88853 50.9828
lradius 96.129
lwrist -6.82917
lhand -38.4476 20.2079
lfingers 7.12502
lthumb -11.471 49.8741
rfemur -7.72538 8.49383 14.2501
rtibia 25.9623
rfoot -17.8182 -3.31879
rtoes 3.92386
lfemur 2.08825 -2.73641 -22.8054
ltibia 10.1833
lfoot -10.2741 6.48852
ltoes -13.4054
331
root -0.144462 17.9594 -0.480733 2.78462 -9.72206 2.14897
lowerback -1.18739 -1.9975 -4.09365
upperback -0.759941 -2.63079 2.39552
thorax 0.18107 -1.30823 4.72663
lowerneck -30.6881 -0.559249 -8.04981
upperneck 10.5382 1.44498 5.36048
head 7.99784 0.927532 3.34202
rclavicle -9.01985e-015 -3.18055e-015
rhumerus -31.4314 1.12584 -81.4794
rradius 30.7194
rwrist 19.212
rhand -17.8693 8.3873
rfingers 7.12502
rthumb 8.39644 -21.4258
lclavicle -9.01985e-015 -3.18055e-015
lhumerus 41.6693 -4.61075 51.3542
lradius 95.8432
lwrist -6.51263
lhand -38.3061 21.0615
lfingers 7.12502
lthumb -11.3345 50.7353
rfemur -7.72173 8.52308 14.3554
rtibia 25.977
rfoot -17.7897 -3.40097
rtoes 3.98527
lfemur 2.10233 -2.68405 -22.7081
ltibia 10.2146
lfoot -10.2538 6.42647
ltoes -13.7457
